#!OML:ASF H:\Terrain\Patient Classification 1\PLAYGROUND\JustinFriday\JustinFriday.ASF
:FULLY-SPECIFIED
:DEGREES
103
root 10.878 17.6383 13.6889 165.053 -80.966 -163.906
lowerback 8.09116 2.22154 -0.924233
upperback 2.00879 2.87291 2.15764
thorax -2.61017 1.40881 2.45425
lowerneck -6.53631 -5.22033 -5.31563
upperneck -6.07444 -6.60569 9.02461
head -0.279909 -3.31416 3.72052
rclavicle 1.88845e-014 6.75868e-015
rhumerus -4.48222 4.79929 -63.4438
rradius 68.4118
rwrist -10.9281
rhand -19.7958 -21.1777
rfingers 7.12502
rthumb 6.53699 -51.0568
lclavicle 1.88845e-014 6.75868e-015
lhumerus -7.2082 2.0136 61.4489
lradius 69.8952
lwrist 32.1291
lhand -5.5738 -1.74869
lfingers 7.12502
lthumb 20.242 27.2166
rfemur -27.4633 0.46793 12.0399
rtibia 50.5481
rfoot -8.92023 -13.8745
rtoes 5.20425
lfemur -0.030118 3.73984 -17.1896
ltibia 24.9028
lfoot -23.1854 7.76753
ltoes 7.20881
104
root 10.8285 17.6249 13.6636 168.845 -80.2246 -167.445
lowerback 7.64363 2.44503 -1.62128
upperback 1.96524 3.12129 2.05028
thorax -2.45039 1.5386 2.72442
lowerneck -6.54194 -5.41971 -6.23599
upperneck -6.29261 -6.80377 9.59242
head -0.276127 -3.40248 4.09268
rclavicle -1.51573e-014 3.57812e-015
rhumerus -3.48838 4.71339 -63.0201
rradius 69.2027
rwrist -11.5809
rhand -18.884 -19.8432
rfingers 7.12502
rthumb 7.41708 -49.6931
lclavicle -1.51573e-014 3.57812e-015
lhumerus -6.28466 3.22927 61.4351
lradius 70.8607
lwrist 35.5094
lhand -6.37268 -0.369303
lfingers 7.12502
lthumb 19.4741 28.6755
rfemur -28.3429 0.55828 11.8445
rtibia 49.6507
rfoot -8.78836 -13.3806
rtoes 4.13754
lfemur -0.0117658 4.39842 -17.5945
ltibia 24.8784
lfoot -23.4281 7.87997
ltoes 7.51826
105
root 10.782 17.5985 13.6607 172.477 -80.2505 -171.456
lowerback 7.93554 2.35828 -2.20351
upperback 2.07837 2.94696 1.79775
thorax -2.50041 1.45264 2.79954
lowerneck -6.84158 -5.26959 -5.71827
upperneck -5.86279 -6.64411 9.68787
head -0.11272 -3.32098 4.01534
rclavicle -2.36554e-014 -2.24627e-014
rhumerus -2.2442 4.53531 -62.881
rradius 69.8307
rwrist -12.1033
rhand -18.1466 -19.1915
rfingers 7.12502
rthumb 8.12884 -49.0152
lclavicle -2.36554e-014 -2.24627e-014
lhumerus -5.28842 4.35006 61.2209
lradius 71.607
lwrist 38.7693
lhand -7.83807 0.689901
lfingers 7.12502
lthumb 18.0646 29.871
rfemur -28.4229 0.283619 11.1714
rtibia 48.7136
rfoot -8.80756 -12.9392
rtoes 3.36382
lfemur 0.665174 4.29146 -18.3888
ltibia 24.6667
lfoot -23.5322 8.1897
ltoes 7.30751
106
root 10.7378 17.5787 13.6479 172.305 -79.9732 -171.288
lowerback 8.01461 2.27892 -2.12416
upperback 2.0272 2.845 1.69544
thorax -2.58142 1.40331 2.6558
lowerneck -6.6713 -5.38008 -6.30286
upperneck -6.3008 -6.74347 9.9981
head -0.24164 -3.37431 4.24831
rclavicle -2.28851e-014 -2.78299e-015
rhumerus -1.18799 4.44806 -63.032
rradius 70.5477
rwrist -12.8056
rhand -17.7925 -19.1249
rfingers 7.12502
rthumb 8.4706 -48.9351
lclavicle -2.28851e-014 -2.78299e-015
lhumerus -4.31141 5.46476 60.9312
lradius 72.2354
lwrist 41.6129
lhand -9.62177 1.43926
lfingers 7.12502
lthumb 16.3478 30.7703
rfemur -28.8647 0.364931 11.3943
rtibia 47.7082
rfoot -8.91869 -12.7658
rtoes 3.0543
lfemur 1.01905 4.45329 -18.2862
ltibia 24.4509
lfoot -23.6025 8.35455
ltoes 6.88788
107
root 10.6838 17.5723 13.6473 173.571 -79.6556 -172.623
lowerback 8.04588 2.30262 -2.299
upperback 2.02847 2.86101 1.66666
thorax -2.60542 1.41248 2.72143
lowerneck -6.39489 -5.11146 -5.4969
upperneck -6.5051 -6.44136 9.37987
head -0.436315 -3.24608 3.89859
rclavicle 1.40889e-014 2.00773e-014
rhumerus -0.17015 4.49327 -62.7044
rradius 71.3746
rwrist -14.0195
rhand -17.8832 -19.5354
rfingers 7.12502
rthumb 8.3831 -49.3491
lclavicle 1.40889e-014 2.00773e-014
lhumerus -3.27103 6.69777 61.2308
lradius 72.9039
lwrist 43.9564
lhand -11.455 2.25748
lfingers 7.12502
lthumb 14.5821 31.7249
rfemur -29.1692 0.166809 11.3206
rtibia 46.5399
rfoot -8.8386 -12.3674
rtoes 1.72738
lfemur 1.37464 4.56734 -18.5716
ltibia 24.3684
lfoot -23.8146 8.6659
ltoes 6.44304
108
root 10.6285 17.5586 13.6331 174.899 -79.3734 -173.907
lowerback 7.90371 2.37759 -2.72146
upperback 2.03448 2.93284 1.74414
thorax -2.54991 1.45038 3.03688
lowerneck -6.72411 -5.13659 -6.21184
upperneck -6.1892 -6.42827 9.54673
head -0.245389 -3.21149 4.07948
rclavicle -9.39258e-015 -1.8487e-014
rhumerus 0.936724 4.00804 -62.1796
rradius 71.9454
rwrist -14.4283
rhand -16.6785 -19.3328
rfingers 7.12502
rthumb 9.54551 -49.0966
lclavicle -9.39258e-015 -1.8487e-014
lhumerus -2.09545 7.66145 61.6656
lradius 73.4757
lwrist 45.9392
lhand -13.5093 3.05458
lfingers 7.12502
lthumb 12.6022 32.6545
rfemur -29.5424 0.268135 11.2295
rtibia 45.285
rfoot -8.79122 -12.2223
rtoes 0.880235
lfemur 1.59875 4.75335 -18.7942
ltibia 24.3397
lfoot -24.0403 8.91273
ltoes 6.35163
109
root 10.5849 17.5445 13.6212 174.642 -78.6006 -173.088
lowerback 7.46844 2.49371 -2.57774
upperback 1.85633 3.11597 1.75761
thorax -2.49927 1.5459 2.96343
lowerneck -6.73247 -5.1204 -6.41045
upperneck -6.33392 -6.38987 9.60024
head -0.285232 -3.19183 4.14123
rclavicle 2.76311e-014 7.95139e-015
rhumerus 2.12174 3.49873 -61.9508
rradius 72.3719
rwrist -14.8918
rhand -15.6934 -19.2474
rfingers 7.12502
rthumb 10.4959 -48.9653
lclavicle 2.76311e-014 7.95139e-015
lhumerus -0.940299 8.39583 61.739
lradius 74.0347
lwrist 47.7324
lhand -15.7473 3.90792
lfingers 7.12502
lthumb 10.4439 33.6285
rfemur -30.5818 0.796926 11.6443
rtibia 43.8865
rfoot -8.62761 -12.1143
rtoes 0.191574
lfemur 1.29833 5.05478 -18.6485
ltibia 24.2629
lfoot -24.1454 9.56699
ltoes 5.87419
110
root 10.5291 17.5347 13.6129 175.884 -78.2554 -174.248
lowerback 7.4089 2.52635 -2.75626
upperback 1.83442 3.14672 1.67876
thorax -2.49605 1.56304 2.98073
lowerneck -6.57336 -5.01088 -6.19695
upperneck -6.60481 -6.25652 9.47891
head -0.424981 -3.13819 4.07216
rclavicle 2.95692e-014 5.1684e-015
rhumerus 3.4651 3.06753 -61.6129
rradius 72.6133
rwrist -15.1083
rhand -15.2661 -19.4761
rfingers 7.12502
rthumb 10.9081 -49.1727
lclavicle 2.95692e-014 5.1684e-015
lhumerus 0.25774 9.04822 61.9517
lradius 74.6985
lwrist 49.4347
lhand -18.0878 4.82113
lfingers 7.12502
lthumb 8.18563 34.6426
rfemur -30.9904 0.619578 11.6328
rtibia 42.4244
rfoot -8.37658 -11.8739
rtoes -2.16896
lfemur 1.44155 5.05759 -18.9608
ltibia 24.2734
lfoot -24.4593 9.90071
ltoes 5.35357
111
root 10.4721 17.5295 13.6042 175.32 -78.0722 -173.742
lowerback 7.60319 2.53409 -2.62899
upperback 1.83149 3.16283 1.76998
thorax -2.60668 1.5711 2.99416
lowerneck -6.91177 -4.90326 -5.99334
upperneck -6.18617 -6.12909 9.37673
head -0.251179 -3.06373 3.98368
rclavicle 4.33848e-014 1.63003e-014
rhumerus 4.72508 2.58223 -61.2705
rradius 72.9892
rwrist -15.1326
rhand -15.0242 -20.1779
rfingers 7.12502
rthumb 11.1414 -49.8621
lclavicle 4.33848e-014 1.63003e-014
lhumerus 1.48519 9.60053 62.3134
lradius 75.2691
lwrist 50.6975
lhand -20.3189 5.47541
lfingers 7.12502
lthumb 6.03198 35.3695
rfemur -31.1253 0.275284 11.9882
rtibia 40.8585
rfoot -8.00601 -11.7806
rtoes -4.465
lfemur 1.78828 4.85498 -18.9043
ltibia 24.2131
lfoot -24.7453 10.2291
ltoes 5.01325
112
root 10.4078 17.5154 13.5911 174.176 -78.0631 -172.506
lowerback 7.54432 2.3345 -2.26787
upperback 1.75409 2.92858 1.7903
thorax -2.62005 1.45398 2.83722
lowerneck -6.88502 -4.8124 -6.15031
upperneck -6.22696 -5.99788 9.35137
head -0.275733 -2.9962 4.01176
rclavicle -2.31087e-014 -3.18055e-015
rhumerus 5.87733 2.33591 -61.2764
rradius 73.5188
rwrist -15.4683
rhand -14.7083 -20.8513
rfingers 7.12502
rthumb 11.446 -50.5188
lclavicle -2.31087e-014 -3.18055e-015
lhumerus 2.4749 10.141 62.1668
lradius 75.7748
lwrist 51.6474
lhand -22.4925 6.0452
lfingers 7.12502
lthumb 3.93323 35.9886
rfemur -31.3299 0.346285 12.3231
rtibia 39.31
rfoot -8.26922 -11.964
rtoes -3.22764
lfemur 2.10872 4.64452 -18.6806
ltibia 23.9196
lfoot -24.7366 10.6897
ltoes 4.18767
113
root 10.3322 17.5063 13.5734 175.667 -78.4516 -174.115
lowerback 7.53666 2.03784 -2.48116
upperback 1.73147 2.51453 1.60308
thorax -2.61158 1.24995 2.80558
lowerneck -6.69215 -4.65638 -5.92236
upperneck -6.42161 -5.80701 9.24761
head -0.39969 -2.9133 3.947
rclavicle 1.56791e-014 -4.17448e-015
rhumerus 7.07884 2.19986 -61.2443
rradius 73.9373
rwrist -16.0076
rhand -14.6443 -21.4284
rfingers 7.12502
rthumb 11.5078 -51.0925
lclavicle 1.56791e-014 -4.17448e-015
lhumerus 3.51202 10.6512 61.9363
lradius 76.2427
lwrist 52.7162
lhand -24.5327 6.74894
lfingers 7.12502
lthumb 1.96291 36.7197
rfemur -31.1462 0.355463 11.8489
rtibia 37.5692
rfoot -9.07267 -12.0104
rtoes 1.49832
lfemur 2.50745 4.46109 -19.0526
ltibia 23.8553
lfoot -24.8872 10.7718
ltoes 3.49119
114
root 10.2742 17.4946 13.5526 178.232 -78.4753 -176.936
lowerback 7.91878 2.02233 -3.09095
upperback 1.7442 2.4308 1.46856
thorax -2.82427 1.2145 3.00668
lowerneck -6.71648 -4.64044 -6.04098
upperneck -6.55869 -5.77364 9.33229
head -0.436091 -2.89776 4.00315
rclavicle 1.3741e-014 1.8487e-014
rhumerus 8.33118 1.90784 -60.8804
rradius 74.2609
rwrist -16.5812
rhand -14.8967 -22.0787
rfingers 7.12502
rthumb 11.2643 -51.7562
lclavicle 1.3741e-014 1.8487e-014
lhumerus 4.82774 11.0505 62.247
lradius 76.6451
lwrist 53.7381
lhand -26.3892 7.28611
lfingers 7.12502
lthumb 0.169832 37.2658
rfemur -31.204 -0.0347361 11.3885
rtibia 36.145
rfoot -9.20111 -11.4513
rtoes 3.03305
lfemur 3.26229 4.37734 -19.6507
ltibia 23.2779
lfoot -24.7944 11.0878
ltoes 2.91175
115
root 10.236 17.4952 13.5282 171.39 -77.7395 -169.443
lowerback 7.87339 2.13597 -1.64379
upperback 1.50883 2.71742 1.9415
thorax -3.02117 1.35184 2.64879
lowerneck -6.77562 -4.66604 -6.24243
upperneck -6.63832 -5.79065 9.3921
head -0.441884 -2.90299 4.06285
rclavicle 5.39203e-015 5.96354e-015
rhumerus 9.50321 1.63559 -60.3691
rradius 74.656
rwrist -17.4092
rhand -15.3116 -22.6097
rfingers 7.12502
rthumb 10.8642 -52.3086
lclavicle 5.39203e-015 5.96354e-015
lhumerus 6.1461 11.3032 62.6913
lradius 77.0715
lwrist 54.3255
lhand -28.0747 7.58594
lfingers 7.12502
lthumb -1.45803 37.5607
rfemur -32.1061 0.737662 13.3625
rtibia 34.6362
rfoot -8.68217 -11.8982
rtoes 0.57445
lfemur 3.20915 4.39482 -17.8984
ltibia 22.7176
lfoot -24.6177 11.5653
ltoes 2.90973
116
root 10.1244 17.4651 13.5038 181.492 -78.8045 -180.5
lowerback 8.10052 1.90397 -3.78055
upperback 1.80589 2.20548 1.35506
thorax -2.86505 1.1062 3.29808
lowerneck -6.93062 -4.64362 -6.28324
upperneck -6.51784 -5.75738 9.31783
head -0.37979 -2.87972 4.03929
rclavicle 4.07012e-014 -1.11319e-014
rhumerus 10.6634 1.34187 -59.951
rradius 75.1305
rwrist -18.2497
rhand -15.7825 -22.9875
rfingers 7.12502
rthumb 10.41 -52.7098
lclavicle 4.07012e-014 -1.11319e-014
lhumerus 7.49519 11.6267 63.0891
lradius 77.2824
lwrist 53.9988
lhand -29.1112 8.10962
lfingers 7.12502
lthumb -2.45907 38.0752
rfemur -31.1483 -0.739528 10.8751
rtibia 33.0956
rfoot -8.82438 -11.2986
rtoes -0.990571
lfemur 4.6169 3.98331 -20.3845
ltibia 22.2346
lfoot -24.5946 11.5915
ltoes 1.69682
117
root 10.0517 17.4587 13.4886 180.708 -78.7726 -179.456
lowerback 7.90835 1.79729 -3.47841
upperback 1.735 2.09903 1.40208
thorax -2.81363 1.05258 3.19209
lowerneck -7.21766 -4.57241 -6.39424
upperneck -6.33474 -5.65118 9.31529
head -0.275674 -2.81611 4.05348
rclavicle -2.70347e-014 -2.98177e-015
rhumerus 12.0102 1.11685 -59.7762
rradius 75.5917
rwrist -18.9382
rhand -16.4115 -23.409
rfingers 7.12502
rthumb 9.80316 -53.1608
lclavicle -2.70347e-014 -2.98177e-015
lhumerus 8.86195 12.063 63.3714
lradius 77.4234
lwrist 53.3199
lhand -29.9741 8.96608
lfingers 7.12502
lthumb -3.29244 38.9204
rfemur -31.3345 -0.642012 11.0957
rtibia 31.1445
rfoot -8.83452 -11.03
rtoes 0.49227
lfemur 4.64635 3.88144 -20.2119
ltibia 22.2605
lfoot -24.7153 12.0378
ltoes 0.768765
